<?xml version="1.0" encoding="utf-8"?>
<!-- Generator: Adobe Illustrator 22.0.0, SVG Export Plug-In . SVG Version: 6.00 Build 0)  -->
<svg version="1.1" xmlns="http://www.w3.org/2000/svg" xmlns:xlink="http://www.w3.org/1999/xlink" x="0px" y="0px"
	 viewBox="0 0 1080 1080" style="enable-background:new 0 0 1080 1080;" xml:space="preserve">
<style type="text/css">
	.st0{fill:#EB7962;}
	.st1{fill:#9FAB85;}
	.st2{fill:#FBB278;}
	.st3{fill:#2C325A;}
	.st4{fill:#6B937E;}
	.st5{fill:none;stroke:#2C325A;stroke-width:6;stroke-linecap:round;stroke-linejoin:round;stroke-miterlimit:10;}
	.st6{fill:#FFDA90;}
	.st7{fill:none;stroke:#2C325A;stroke-width:7;stroke-linecap:round;stroke-miterlimit:10;}
	.st8{fill:#FFFFEF;}
	.st9{fill:none;stroke:#FFFFEF;stroke-width:5;stroke-linecap:round;stroke-miterlimit:10;}
	.st10{fill:#FFFFFF;}
	.st11{fill:#F47756;}
	.st12{fill:#8FC4A8;}
	.st13{fill:none;stroke:#FFFFEF;stroke-width:7;stroke-linecap:round;stroke-miterlimit:10;}
	.st14{fill:none;stroke:#FBB278;stroke-width:26;stroke-miterlimit:10;}
</style>
<g id="outline">
	<g id="Background_2_">
		<g id="Line_x2C__Round_x2C__Sparkles_1_">
			<g id="Sparkles_1_">
				<g id="_x33__5_">
					<path class="st0" d="M160,686.9h-42.9l30.3-30.3c1.2-1.2,1.2-3.2,0-4.4c-1.2-1.2-3.2-1.2-4.4,0l-30.3,30.3v-42.9
						c0-1.7-1.4-3.1-3.1-3.1s-3.1,1.4-3.1,3.1v42.9l-30.3-30.3c-1.2-1.2-3.2-1.2-4.4,0c-1.2,1.2-1.2,3.2,0,4.4l30.3,30.3H59.1
						c-1.7,0-3.1,1.4-3.1,3.1c0,1.7,1.4,3.1,3.1,3.1H102l-30.3,30.3c-1.2,1.2-1.2,3.2,0,4.4c0.6,0.6,1.4,0.9,2.2,0.9
						c0.8,0,1.6-0.3,2.2-0.9l30.3-30.3v42.9c0,1.7,1.4,3.1,3.1,3.1s3.1-1.4,3.1-3.1v-42.9L143,728c0.6,0.6,1.4,0.9,2.2,0.9
						c0.8,0,1.6-0.3,2.2-0.9c1.2-1.2,1.2-3.2,0-4.4l-30.3-30.3H160c1.7,0,3.1-1.4,3.1-3.1C163.2,688.3,161.8,686.9,160,686.9z"/>
				</g>
				<g id="_x32__7_">
					<path class="st0" d="M998.6,548.9h-34.8l24.6-24.6c1-1,1-2.6,0-3.6c-1-1-2.6-1-3.6,0l-24.6,24.6v-34.8c0-1.4-1.1-2.6-2.6-2.6
						c-1.4,0-2.6,1.1-2.6,2.6v34.8l-24.6-24.6c-1-1-2.6-1-3.6,0c-1,1-1,2.6,0,3.6l24.6,24.6h-34.8c-1.4,0-2.6,1.1-2.6,2.6
						c0,1.4,1.1,2.6,2.6,2.6h34.8l-24.6,24.6c-1,1-1,2.6,0,3.6c0.5,0.5,1.2,0.7,1.8,0.7s1.3-0.2,1.8-0.7l24.6-24.6v34.8
						c0,1.4,1.1,2.6,2.6,2.6c1.4,0,2.6-1.1,2.6-2.6v-34.8l24.6,24.6c0.5,0.5,1.2,0.7,1.8,0.7s1.3-0.2,1.8-0.7c1-1,1-2.6,0-3.6
						L963.8,554h34.8c1.4,0,2.6-1.1,2.6-2.6C1001.2,550,1000,548.9,998.6,548.9z"/>
				</g>
				<g id="_x31__7_">
					<path class="st0" d="M288.7,131.5h-28.3l20-20c0.8-0.8,0.8-2.1,0-2.9s-2.1-0.8-2.9,0l-20,20v-28.3c0-1.1-0.9-2.1-2.1-2.1
						c-1.1,0-2.1,0.9-2.1,2.1v28.3l-20-20c-0.8-0.8-2.1-0.8-2.9,0c-0.8,0.8-0.8,2.1,0,2.9l20,20h-28.3c-1.1,0-2.1,0.9-2.1,2.1
						s0.9,2.1,2.1,2.1h28.3l-20,20c-0.8,0.8-0.8,2.1,0,2.9c0.4,0.4,0.9,0.6,1.5,0.6c0.5,0,1.1-0.2,1.5-0.6l20-20v28.3
						c0,1.1,0.9,2.1,2.1,2.1c1.1,0,2.1-0.9,2.1-2.1v-28.3l20,20c0.4,0.4,0.9,0.6,1.5,0.6s1.1-0.2,1.5-0.6c0.8-0.8,0.8-2.1,0-2.9
						l-20-20h28.3c1.1,0,2.1-0.9,2.1-2.1S289.8,131.5,288.7,131.5z"/>
				</g>
			</g>
			<g id="Round_1_">
				<g id="_x33__4_">
					<path class="st1" d="M171.7,570.6c-19.3,0-34.9-15.7-34.9-34.9s15.7-34.9,34.9-34.9c19.3,0,34.9,15.7,34.9,34.9
						S191,570.6,171.7,570.6z M171.7,506.8c-16,0-28.9,13-28.9,28.9s13,28.9,28.9,28.9c16,0,28.9-13,28.9-28.9
						S187.7,506.8,171.7,506.8z"/>
				</g>
				<g id="_x32__6_">
					<path class="st1" d="M1004.8,800.8c-16.7,0-30.3-13.6-30.3-30.3s13.6-30.3,30.3-30.3s30.3,13.6,30.3,30.3
						S1021.5,800.8,1004.8,800.8z M1004.8,746.3c-13.4,0-24.3,10.9-24.3,24.3s10.9,24.3,24.3,24.3s24.3-10.9,24.3-24.3
						S1018.2,746.3,1004.8,746.3z"/>
				</g>
				<g id="_x31__6_">
					<path class="st1" d="M808.4,128.7c-12.4,0-22.5-10.1-22.5-22.5c0-12.4,10.1-22.5,22.5-22.5s22.5,10.1,22.5,22.5
						C830.8,118.6,820.8,128.7,808.4,128.7z M808.4,89.7c-9.1,0-16.5,7.4-16.5,16.5s7.4,16.5,16.5,16.5s16.5-7.4,16.5-16.5
						S817.4,89.7,808.4,89.7z"/>
				</g>
			</g>
			<g id="Line_1_">
				<g id="_x32__5_">
					<path class="st2" d="M140.6,303.6c-2.3,0-4.7-0.4-6.9-1.2c-5.6-2.1-9.7-6.2-13.6-10.2c-2.6-2.7-5.1-5.2-8-7.1
						c-9.3-6.1-23.2-4-30.3,4.6c-1.1,1.3-2.9,1.5-4.2,0.4c-1.3-1.1-1.5-2.9-0.4-4.2c9-10.9,26.5-13.5,38.3-5.8
						c3.4,2.2,6.2,5.1,8.9,7.9c3.6,3.7,7,7.2,11.4,8.8c7.4,2.7,16.6-1.5,19.4-8.8c0.6-1.6,2.3-2.3,3.9-1.7c1.5,0.6,2.3,2.3,1.7,3.9
						C157.7,298.3,149.2,303.6,140.6,303.6z"/>
				</g>
				<g id="_x31__5_">
					<path class="st2" d="M921.8,386c-0.2,0-0.5,0-0.7-0.1c-1.6-0.4-2.6-2-2.2-3.7c3.5-13.7,18.3-23.5,32.2-21.5
						c4,0.6,7.8,2,11.4,3.4c4.8,1.8,9.4,3.5,14,3.1c7.9-0.6,14.5-8.4,13.9-16.2c-0.1-1.7,1.1-3.1,2.8-3.2c1.7-0.1,3.1,1.1,3.2,2.8
						c0.8,11.2-8.2,21.8-19.4,22.7c-5.9,0.5-11.4-1.5-16.6-3.5c-3.5-1.3-6.8-2.5-10.2-3c-11.1-1.6-22.8,6.2-25.5,17
						C924.4,385.1,923.1,386,921.8,386z"/>
				</g>
			</g>
		</g>
	</g>
	<g id="Girl_in_the_Mirror_1_">
		<g id="Girl_1_">
			<g id="Body_1_">
				<g id="Neck_1_">
					<rect x="504.7" y="369.8" class="st0" width="54.4" height="58.2"/>
					<path class="st3" d="M509.5,395.6c5.2-1,10.5-2.2,15.6-3.8c1.3-0.4,2.6-0.8,4-1.3c0.6-0.2,1.2-0.5,1.8-0.7c3-1.5,6-2.8,8.9-4.5
						c1.6-0.9,3.1-1.8,4.6-2.8c0.7-0.5,1.3-1,2-1.4c0,0,0,0,0,0c1.3-1.1,2.6-2.2,3.8-3.4c0.5-0.5,1-1.1,1.5-1.6c0,0,0-0.1,0.1-0.1
						c0.3-0.6,0.7-1.2,1-1.7c0,0,0-0.1,0-0.1c0-0.2,0-0.7,0.2-1.2c0-2.1,0.5-4.1,1.4-5.8h-49.5v29.5
						C506.3,396.2,507.9,395.9,509.5,395.6z"/>
				</g>
				<g>
					<g>
						<polygon class="st4" points="729.4,1080 348.4,1080 386.2,735.8 697.6,735.8 						"/>
						<line class="st5" x1="541.9" y1="832.4" x2="541.9" y2="1080"/>
					</g>
					<g>
						<path class="st6" d="M705.4,692.5h112.3c40.3-81.5-52.5-201.9-52.5-201.9c-16.1-23.5-48.3-62.6-86.3-62.6h-47.9L705.4,692.5z"
							/>
						<path class="st6" d="M702.4,782.1c0,0-63.1,28.5-150.5,28.5s-170.1-25.2-170.1-25.2L414.1,428h121.4h130.3L702.4,782.1z"/>
						<path class="st6" d="M386.2,692.5H273.9c-40.3-81.5,52.5-201.9,52.5-201.9c16.1-23.5,48.3-62.6,86.3-62.6h47.9L386.2,692.5z"
							/>
					</g>
					<g>
						<path class="st4" d="M724.8,445.8c-13.6-10.5-29.2-18-45.9-18L559.2,428v-14.4l-54.4,1.1l0,13h-91.9c-16.7,0-32.3,7.6-45.9,18
							H724.8z"/>
						<path class="st4" d="M782.5,515.8c-9.8-15.8-17.3-25.5-17.3-25.5c-2.1-3.1-4.5-6.5-7.2-10H333.6c-2.6,3.5-5,6.9-7.2,10
							c0,0-7.5,9.7-17.3,25.5H782.5z"/>
						<path class="st4" d="M697.5,734.6l-3.5-34c0,0-88.4,21.4-147.5,21.4s-157.1-21.4-157.1-21.4l-3.1,34c0,0,80.7,22.2,154.9,22.2
							C616.2,756.8,697.5,734.6,697.5,734.6z"/>
						<path class="st4" d="M291.5,649.6c-2.3,5.5-4.6,11-7.4,16.3c0,0,210.1,16.3,254.8,17.6c44.7,1.3,151.5-17.6,151.5-17.6
							l-4.4-42.6h-386C298,632.4,295,641.2,291.5,649.6z"/>
						<path class="st4" d="M817.6,588.8c-4.5-13.5-10-26.5-15.8-38.3H289.9c-5.8,11.8-11.4,24.8-15.8,38.3H817.6z"/>
						<path class="st4" d="M826.2,666c2.4-13.8,2.1-28.2-0.1-42.6H686l12,42.6H826.2z"/>
					</g>
					<line class="st5" x1="402.9" y1="567.1" x2="405.6" y2="511"/>
				</g>
				<g id="Hand1_1_">
					<path class="st0" d="M697.3,477.4l-10.2-44.7l-58.4-4.5c1.1-1,1.9-1.9,2.3-2.5c0,0-4.4-2.4-15.6-9.4c-7.8-4.8-13-8.7-16.9-1
						c-1.6,3.1-1.7,6,0.6,9.8c1.2,2.1,6.5,5.5,11.8,8.5l5.4,43.8H697.3z"/>
					<g>
						<path class="st6" d="M817.7,692.5c0,0-42.6,53.1-106,25.9c-87.3-37.5-95.5-241-95.5-241h81.4L817.7,692.5z"/>
						<g>
							<path class="st4" d="M737.1,548.2l-18.8-33.7h-99c1.1,9.9,2.7,21.4,4.7,33.7H737.1z"/>
							<path class="st4" d="M740.5,626.9c11.9-3.2,23.8-5.9,35.8-8.6l-16.5-29.5H632.4c4.9,19.9,11.2,40.3,19.3,59
								C681.7,642.8,711.1,634.7,740.5,626.9z"/>
							<path class="st4" d="M785.2,693.5c9-3.6,18.1-7,27.2-10.5l-18.6-33.3c-14.1,3.3-28.3,6.4-42.3,10.1
								c-27.4,7.3-54.8,14.9-82.7,20c11.1,16.7,24.5,30,40.7,37.6C735.4,712.1,760.6,703.2,785.2,693.5z"/>
						</g>
						<path class="st5" d="M696.2,709.5c-72.9-53.3-80-232.1-80-232.1h81.4l80.8,144.7"/>
					</g>
				</g>
			</g>
			<g id="Head_1_">
				<g id="face_2_">
					<path class="st0" d="M598,275c3.3,30.5-12.6,80-36.1,95c-12.7,8.1-27.7,12.8-43.7,12.8c-20.2,0-56.4-25.2-63.2-46
						c-2.3-7.1-4.1-24.8-4.1-36.7c0-10,1.7-17.6,0.1-23.1c0,0-0.7-16,2.7-24.8c9.5-24.3,25.6-50.8,25.6-50.8
						C531.2,189,589.1,192.6,598,275z"/>
					<g id="face_3_">
						<g id="eyes_1_">
							<ellipse class="st3" cx="477.7" cy="297.3" rx="5.3" ry="9"/>
							<ellipse class="st3" cx="541.2" cy="298.4" rx="5.3" ry="9"/>
						</g>
						<path id="brow_1_" class="st3" d="M481.3,265.4h-23.4c-3.9,0-7.1-3.2-7.1-7.1v-1.4c0-3.9,3.2-7.1,7.1-7.1h23.4
							c3.9,0,7.1,3.2,7.1,7.1v1.4C488.4,262.3,485.3,265.4,481.3,265.4z"/>
						<path id="nose_1_" class="st7" d="M502.5,277.6c0,13.9,0,27.8,0,41.7"/>
						<path id="lip_1_" class="st7" d="M498.1,345.1c0,0,3.5,1.4,10.5,1.1c9.5-0.4,17.9-4.9,23.3-14.1"/>
					</g>
				</g>
				<path id="hair_1_" class="st3" d="M617.4,208.5c-23.9-31-59.4-43.6-74.7-43.6c-18.2,0-34.8,6-46.1,16.9c-52-11.3-96,47.4-66,95
					h18c0,0.1,0,0.3,0,0.4c0.5,9.7-0.5,21.2-6.8,30.9c-22.3,34.4-36.8,85.3-21.7,107.9c18.2,27.2,80.9,19.5,84.4,11.5
					c3.9-8.7,0.8-39.1-0.1-47.5c0,0-7-2.5-14.9-7.1c-7.1-4.1-14.9-10.2-20.2-15.3c-12.1-11.7-15-19-16.8-31.8
					c-3.6-24.9,0-37-1.3-48.7l22.6-0.2c0,0-6-50.8,18.4-69.9c32.4,16.6,33.6,65.4,33.6,65.4h57.1c0,4.9,8.5,31.5-4.1,50.9
					c-22.3,34.4-41,77.7-25.2,99.8c22.3,31.2,80.2,5.7,83.8-2.3C679.8,325.7,646.4,246.1,617.4,208.5z"/>
			</g>
			<g id="Hand_with_Clothes_1_">
				<g id="Clothes_1_">
					<g>
						<g id="Hanger_1_">
							<g>
								<path class="st2" d="M534.1,425.1c-1.7,0-3-1.3-3-3v-17.4c0-3.2,1.6-6.3,4.2-8.2c8.1-5.8,18.7-20.9,16-30.3
									c-2.4-8.4-9.5-12.1-15.6-12c-7.6,0.1-13.6,5.5-16,14.6c-0.4,1.6-2.1,2.6-3.7,2.1c-1.6-0.4-2.6-2.1-2.1-3.7
									c3.6-13.9,13.6-19,21.7-19c0.1,0,0.1,0,0.2,0c9.8,0,18.5,6.7,21.2,16.4c3.6,12.7-8.6,29.8-18.3,36.8c-1.1,0.8-1.7,2-1.7,3.3
									v17.4C537.1,423.7,535.8,425.1,534.1,425.1z"/>
							</g>
							<polygon class="st4" points="575.7,436.5 492.5,436.5 516.1,407.7 552,407.7 							"/>
						</g>
						<g id="Shirt_1_">
							<path class="st8" d="M691.1,734.5c0,0-61.9,25.6-149.4,25.6s-162-25.6-162-25.6l27.8-307.8h63.6l64.3,10.9l64.7-10.9h59.1
								L691.1,734.5z"/>
							<path class="st0" d="M373.8,960.8c5.5,0.3,10.2-4,10.4-9.5l22.2-432.8l1.1-91.8l-3.1,1.5c-42.7,17.9-44.9,84.2-66.2,159.1
								c-38.5,135.5-68.8,311.6-76.4,357c-1,5.9,3.4,11.3,9.4,11.6L373.8,960.8z"/>
							<path class="st0" d="M659.4,426.8l20.5,525.9c0.2,3.9,3.4,6.9,7.3,6.7l109.6-5.1c3.8-0.2,6.8-3.4,6.7-7.2
								C801.4,888.7,782.2,478.3,659.4,426.8z"/>
							<g>
								<polygon class="st2" points="471.1,426.8 510,474.8 535.4,437.6 489.5,409 								"/>
								<polygon class="st2" points="581.3,409 535.4,437.6 559.3,474.8 600.1,426.8 								"/>
							</g>
							<g>
								<circle class="st6" cx="533.8" cy="485.4" r="10.2"/>
								<circle class="st6" cx="533.8" cy="527.7" r="10.2"/>
							</g>
						</g>
						<g>
							<path class="st2" d="M691.1,734.5l-31.9-307.8h-33.9v136.8H445.2V426.8h-37.7l-27.8,307.8l-18.9,196.3
								c0,0,72.2,33.4,181.7,33.4S707,930.9,707,930.9L691.1,734.5z"/>
							<line class="st9" x1="541.9" y1="832.4" x2="542.2" y2="961.7"/>
						</g>
					</g>
				</g>
				<g id="Hand_3_">
					<path class="st0" d="M688.6,443.1c0,8.1-8.4,17.4-23.2,17.9c-18.1,0.6-38.9,0.3-45.4-3.3c-10.1-5.5-13.9-12.2-14.4-21.3
						c-1.4-22.5,15.6-20.8,39.5-20.4C679.8,416.7,688.6,419.8,688.6,443.1z"/>
					<g>
						<path class="st5" d="M625.7,436.2c-1,5.6,1.1,17,4.6,21.7"/>
						<path class="st5" d="M643.8,436.4c-1,5.6,1.1,17,4.6,21.7"/>
						<path class="st5" d="M664.6,438c-1,5.6,1.6,16.3,3.6,20.1"/>
					</g>
				</g>
			</g>
			<g id="Hand_With_Shoes_1_">
				<g id="SHOES_1_">
					<g>
						<path class="st4" d="M671.3,623.3c8.5,50.2,11.2,101.1-43.5,102.9c-37.7,1.2-37.7-46.1-37.7-96.9s-0.5-87.7,18.3-91.7
							c15.6-3.3,26.7-3.1,36.2,8.9C657.6,562.9,666.7,596.2,671.3,623.3z"/>
						<path class="st3" d="M645,612.3c5.5,26.9,8.7,48.9,8.7,48.9c-26.7-14.4-49.8-7.3-55.8,6.1c0,0-1.5-19.1-1.5-55.8
							c0-36.7-6.5-69.7,17-69.7C627.3,541.8,633.8,556.9,645,612.3z"/>
					</g>
					<g>
						<path class="st4" d="M506.9,646c-8.5,50.2-11.2,101.1,43.5,102.9c37.7,1.2,37.7-46.1,37.7-96.9s0.5-87.7-18.3-91.7
							c-15.6-3.3-26.7-3.1-36.2,8.9C520.5,585.7,511.5,618.9,506.9,646z"/>
						<path class="st3" d="M533.1,635.1c-5.5,26.9-8.7,48.9-8.7,48.9c26.7-14.4,49.8-7.3,55.8,6.1c0,0,1.5-19.1,1.5-55.8
							c0-36.7,6.5-69.7-17-69.7C550.9,564.6,544.4,579.6,533.1,635.1z"/>
					</g>
				</g>
				<g id="Hand_2_">
					<path class="st0" d="M623.8,556.7l-51-34.8c-1.2-1.2-2.6-2.1-4.1-2.8c-16.7-7.3-94.1,25.4-94.1,25.4l37.2,75.7
						c0,0,40.9,1.6,45.5,0c14.2-5,31.8-28.9,34.1-40.2c1-4.9-1.3-13-4.8-25.2l26.6,17.2c4.9,3.2,11.6,1.2,13.9-4.2l0,0
						C628.8,563.9,627.4,559.2,623.8,556.7z"/>
					<g>
						<path class="st6" d="M511.8,620.2c0,0-36.4,65.1-88.3,95.8c-86.5,51.1-143.3-14.6-149.6-23.5c-6.3-8.9-8.5-17.7-10.1-39
							c-1.4-18.8,4.5-44.1,4.5-44.1l206.3-64.9L511.8,620.2z"/>
						<g>
							<path class="st4" d="M346.9,595.5c0,0.2,0.2,1.1,0.3,1.6c0.1,0.9,0.3,1.8,0.4,2.7c0.4,2.1,0.7,4.2,1.1,6.3
								c0.9,4.5,1.9,9,3,13.4c3.8,15.2,9,30,14.9,44.5c0.5,1.1,0.9,2.3,1.4,3.4c-0.2-0.4-0.8-1.8,0,0.1c0.7,1.7,1.4,3.3,2.2,5
								c1.6,3.6,3.2,7.1,4.8,10.7c2.8,6.1,5.8,12.1,8.9,18c4.7,9.1,9.6,18,15.1,26.5c7.9-2.9,16-6.8,24.5-11.8
								c5.7-3.4,11.3-7.2,16.6-11.3c-12.1-19-23-38.7-32.1-59.3c-6.8-15.4-12.9-31-18.7-46.7c-2.6-6.9-5.4-13.8-7.6-20.9
								c-0.4-1.2-0.7-2.4-1.1-3.7l-34.9,11C346.1,588.5,346.4,592,346.9,595.5z"/>
							<path class="st4" d="M331.5,669.1c-9.3-23.6-16.4-48.3-19.3-73.5l-17.7,5.6c-0.9,5.3-1.8,10.5-2.7,15.8
								c-1.6,9.6-2.2,13.4-3.1,22.2c-0.8,8-1.2,16-1,24.1c0.1,3.9,0.3,7.9,0.7,11.8c0.1,1,0.2,2.1,0.3,3.1c0,0.3,0.1,0.8,0.2,1.5
								c0.3,1.9,0.6,3.8,1,5.6c0.9,4.3,1.9,8.6,3.2,12.8c0.5,1.6,1,3.2,1.6,4.9c0.2,0.5,1.9,4.9,1.7,4.5c1.4,3.4,3.1,6.8,4.8,10.1
								c15.1,9.9,35.9,18.7,61.5,17.8C350.3,714.3,340.3,691.5,331.5,669.1z"/>
							<path class="st4" d="M414.4,565.7c2.1,7.2,4.8,14.1,7.4,21.1c2.7,7.3,5.5,14.7,8.3,22c1.5,3.8,3,7.5,4.5,11.3
								c1.4,3.5,1.6,3.8,3.4,7.9c8.1,18.4,17.6,36.1,28.2,53.2c12.3-12.9,22.6-26.2,30.3-37.1c-4.5-7.2-9-14.4-13.4-21.6
								c-8.3-13.8-16.3-27.9-23.1-42.6c-3.6-7.8-7.4-15.7-10-23.9c-0.3-1.1-0.7-2.2-1-3.3l-35.2,11.1
								C414,564.3,414.2,565,414.4,565.7z"/>
						</g>
						<path class="st5" d="M338.3,587.4l136.3-42.8l37.2,75.7c0,0-36.4,65.1-88.3,95.8c-13,7.7-25.5,12.5-37.3,15.2"/>
					</g>
				</g>
			</g>
		</g>
		<path class="st10" d="M541.1,85.2c-77.2,0-149.8,30.1-204.4,84.7c-54.6,54.6-84.7,127.2-84.7,204.4v705v0.7h26l0-0.7v-705
			c0-70.3,27.4-136.4,77.1-186.1c49.7-49.7,115.8-77.1,186.1-77.1c70.3,0,136.4,27.4,186.1,77.1c49.7,49.7,77.1,115.8,77.1,186.1
			v705l0,0.7h26v-0.7v-705c0-77.2-30.1-149.8-84.7-204.4S618.3,85.2,541.1,85.2z"/>
		<g>
			<path class="st2" d="M541.1,81.2c-78.3,0-151.9,30.5-207.3,85.9c-55.4,55.4-85.9,129-85.9,207.3V1080h8V374.3
				c0-76.2,29.7-147.8,83.5-201.6c53.9-53.9,125.5-83.5,201.6-83.5s147.8,29.7,201.6,83.5c53.9,53.9,83.5,125.5,83.5,201.6V1080h8
				V374.3c0-78.3-30.5-151.9-85.9-207.3C693,111.7,619.4,81.2,541.1,81.2z"/>
			<path class="st2" d="M808.2,1079.3v-705c0-71.4-27.8-138.4-78.2-188.9c-50.5-50.5-117.5-78.2-188.9-78.2
				c-71.4,0-138.4,27.8-188.9,78.2c-50.5,50.5-78.2,117.5-78.2,188.9v705l0,0.7h8l0-0.7v-705c0-69.2,27-134.3,75.9-183.2
				c48.9-48.9,114-75.9,183.2-75.9c69.2,0,134.3,27,183.2,75.9c48.9,48.9,75.9,114,75.9,183.2v705l0,0.7h8L808.2,1079.3z"/>
		</g>
	</g>
	<g id="Foreground_1_">
		<g>
			<path class="st10" d="M963.2,1046.7c-15.8,5.2-32.4,16.2-46.4,29.7c-2,1.1-4.2,2.3-6.3,3.6h96.6c2.7-3.9,4.8-8.4,6.4-13.6
				C1017.8,1051.7,999.5,1034.8,963.2,1046.7z"/>
			<path class="st10" d="M839.9,1067.5c-7.4-7.5-15.3-14.3-22.3-20c-11.7-16.3-26.6-30.7-42-39.1c-35.1-19.1-57.9-6.4-56.6,8.9
				c2.3,25.8,21.2,39.7,58.5,37.3c12.4-0.8,26.7,2.2,36.9,4.9c5.7,4.8,11.7,10.1,17.4,15.9c1.5,1.5,2.9,3,4.3,4.5h15.1
				C847.7,1075.8,843.9,1071.5,839.9,1067.5z"/>
			<path class="st10" d="M961.5,926.3c-20.8,20.3-36.8,50.1-45.3,80.3c-5.7,8.6-11.6,18.1-17,28c-5.8,10.8-10.8,22.1-14.9,32.7
				c1-10.4,1.7-21.6,2-32.7c0.8-33.3-2.5-67.8-3.7-78.8c15.9-31.4,25.8-67.7,24.7-98.7c-2.1-62-36.9-82.3-56.3-68.3
				c-32.7,23.6-36.4,59.8-4,107.7c12.5,18.5,20.4,44.4,24.3,60.2c1.1,10.4,4.4,44.6,3.6,77.6c-0.3,13.8-1.5,27.8-2.8,40.1
				c-2.3-10.9-5.3-22.7-9.1-34c-3.8-11.4-8.2-22.4-12.6-32.3c-4.2-29.9-14.3-59.9-29.2-81.3c-31.1-44.7-65.2-41.8-72.2-21.5
				c-11.8,34.2,2.9,62.8,48.6,81.5c16.9,6.9,34,21.1,44.5,30.7c3.5,8.3,7,17.2,10.1,26.4c4,11.9,7,24.5,9.4,36h30
				c4.5-12.5,10.3-26.8,17.4-40c4.6-8.5,9.7-16.8,14.7-24.5c13.4-8.5,36.4-21.6,58.2-27c56.5-13.9,77.4-40.9,67.7-76.1
				C1044.1,891.5,1003.9,885,961.5,926.3z"/>
		</g>
		<g>
			<path class="st1" d="M816.3,1057.3c-0.3-0.3-0.7-0.5-1.1-0.6c-10.2-2.7-25-5.8-37.9-5c-34.5,2.1-53.1-9.5-55.3-34.6
				c-0.4-4.5,1.8-8.6,6.1-11.5c12-7.9,31.7-2.4,46,5.4c14.5,7.8,29,21.4,41,38.2c0.2,0.2,0.3,0.4,0.6,0.6
				c8.2,6.7,15.7,13.3,22.1,19.8c3.1,3.2,6.3,6.6,9.5,10.4h7.8c-4.4-5.4-8.8-10.2-13.1-14.6c-6.5-6.5-14-13.3-22.2-20
				c-12.5-17.3-27.7-31.4-42.8-39.6c-20.6-11.2-40.1-13.1-52.2-5.2c-6.2,4.1-9.4,10.3-8.8,17c1.8,19.9,13.9,43.1,61.7,40.1
				c11.8-0.7,25.6,2.1,35.3,4.6c6.2,5.2,11.8,10.3,16.7,15.3c0.8,0.8,1.5,1.6,2.3,2.4h8.2c-2-2.3-4.1-4.5-6.2-6.6
				C828.8,1068.2,822.9,1062.8,816.3,1057.3z"/>
			<path class="st1" d="M1003.3,1080h7.4c2.5-4,4.3-8.4,5.6-12.7c2-6.7,0-13.8-5.4-19c-9.8-9.5-28-11.2-48.7-4.4
				c-15.5,5.1-32.3,15.8-47.2,30.1c-3.6,2-7.1,4-10.5,6h12c0.6-0.3,1.1-0.6,1.7-0.9c0.2-0.1,0.5-0.3,0.6-0.5
				c14.4-13.9,30.5-24.2,45.2-29c18.5-6.1,34.5-4.9,42.6,3c3.8,3.7,5.2,8.4,3.8,13C1008.8,1071.3,1006.4,1076.1,1003.3,1080z"/>
			<path class="st1" d="M1033.7,894.3c-9.7-2.6-21.2-1.7-33.4,2.8c-13.8,5-27.6,14.1-40.8,27c-20.1,19.6-36.9,49.2-45.9,81.2
				c-6.4,9.6-12,19-16.9,27.9c-2.7,4.9-5.3,10.2-7.8,15.8c0.3-5,0.5-9.7,0.6-14.3c0.8-32.9-2.4-67.2-3.6-78.3
				c16.7-33.2,25.7-69.4,24.7-99.4c-1.8-52.8-25.7-68.6-33-72.2c-9.8-4.8-20-4.2-28.1,1.6c-24.7,17.8-45.5,51.6-4.7,111.9
				c12.5,18.4,20.3,44.8,23.8,59.1c1.1,10,4.4,44.2,3.6,77c-0.2,6.8-0.5,14.1-1.1,21.7c-1.5-5.8-3.2-11.3-4.9-16.5
				c-3.4-10.2-7.6-21-12.5-32.1c-4.5-31.6-15.3-61.5-29.6-82.2c-17.7-25.5-39.2-39.1-57.6-36.6c-9.7,1.3-16.9,7.1-19.9,15.9
				c-8.9,25.9-7.4,61.6,50.3,85.3c15.9,6.5,32.2,19.7,43.1,29.7c3.8,8.9,7,17.5,9.7,25.5c3.9,11.6,6.9,24,9.2,35h6.1
				c-2.3-11.5-5.5-24.6-9.6-36.9c-2.8-8.4-6.2-17.3-10.2-26.6c-0.2-0.4-0.4-0.7-0.7-1c-11.3-10.4-28.4-24.3-45.4-31.3
				c-21.7-8.9-36.6-20.2-44.4-33.7c-7.3-12.8-8.2-27.6-2.5-44.1c2.2-6.5,7.7-10.9,15.1-11.9c6-0.8,27.5-0.8,51.8,34.1
				c13.9,20,24.3,49.1,28.6,80c0,0.3,0.1,0.5,0.2,0.8c4.9,11.1,9.1,21.9,12.5,32c3.3,10,6.4,21.3,9,33.6c0.3,1.4,1.6,2.5,3.1,2.4
				c1.5-0.1,2.7-1.2,2.8-2.7c1.6-14.5,2.5-28.1,2.8-40.3c0.8-33.3-2.6-68.1-3.6-78c0-0.1,0-0.3-0.1-0.4
				c-4.4-17.8-12.3-42.9-24.7-61.2c-15.5-22.9-22.9-43.5-21.9-61.2c0.9-16.8,9.4-31.1,25.2-42.5c6.2-4.5,14.2-4.9,21.9-1.1
				c6.5,3.2,28,17.5,29.7,67c1,29.2-7.9,64.7-24.4,97.3c-0.3,0.5-0.4,1.1-0.3,1.7c1.1,9.9,4.5,45,3.6,78.4c-0.2,10-0.9,20.9-2,32.5
				c-0.1,1.5,0.8,2.9,2.3,3.2c1.5,0.3,2.9-0.4,3.5-1.8c4.6-11.9,9.6-22.8,14.7-32.4c4.8-8.9,10.4-18.2,16.8-27.8
				c0.2-0.3,0.3-0.5,0.4-0.9c8.8-31.2,25-60,44.5-79c27.7-27,53.5-32.3,68.5-28.3c7.7,2.1,13.2,6.8,14.9,13
				c3.8,13.7,2.6,26-3.5,36.4c-9.4,16-30.2,28.1-62,36c-21.5,5.3-44,17.8-59.1,27.4c-0.4,0.2-0.7,0.5-0.9,0.9
				c-5.6,8.6-10.6,16.9-14.9,24.8c-7.4,13.8-13.5,28.7-18,41.4h6.4c4.3-12.1,10-25.8,16.9-38.6c4.1-7.5,8.9-15.5,14.3-23.8
				c12.2-7.7,35.3-21,56.8-26.3c33.4-8.2,55.5-21.3,65.8-38.8c7-11.9,8.3-25.7,4.1-41.1C1050.5,903.3,1043.5,897,1033.7,894.3z"/>
		</g>
		<path class="st10" d="M240.9,991.9c-15.8,11.6-32.5,26.6-39.5,67.4c-2.9-10.9-5.9-23.9-8.5-38.1l25.7-36.5l-4.4-3.1l-23.8,24.2
			c-2.8-16.6-3.6-26.7-4-44.9c8.1-4,22.5-9.7,40.8-11.4c44.9-4.3,68.3-13.4,76.2-33.1c11.6-29-21.6-51.4-65.7-31.9
			c-17.3,7.7-36.2,18.6-51,56.8c1.2-22.1,5.9-49.6,13.9-80.6c6.4-3.4,18.3-8,32.4-5.2c32.5,6.5,50.9,4.8,60.5-8.3
			c14.1-19.1-4-41.7-39.2-34.5c-18.4,3.8-36.9,14.2-50.2,34.7c7.4-26.7,14.4-46.1,14.5-46.3l-13.6-4.9c-0.7,1.9-9.1,25.1-17.2,55.9
			c-2.5-17.6-10.5-31.3-20.8-41.1c-24.1-23.3-50.3-12.8-49.1,10.3c0.8,15.8,14.5,26.2,43.7,36.6c10.3,3.7,16.9,10.8,20.7,16.5
			c-2.2,9.7-3.5,15.5-5.2,25.6L146,871.6l-4,3.7l32.7,39c-1.3,8.9-1.9,14.8-2.5,23.4c-7-23.4-18.4-33.3-29.5-41.1
			c-35.4-25-69.7-7.8-65.3,22c3,20.3,22.1,32.3,61.3,42.6c15.9,4.2,27.5,11.6,34,16.6c1.7,23.4,5.5,45.8,9.7,64.7
			c-17.9-29.3-35.7-36.5-52-41.1c-45.4-12.9-74.5,16.1-59.2,44.3c10.4,19.3,34.3,24.7,78.4,21.6c17.4-1.2,31.7,2,40.2,4.7
			c0.8,2.9,1.6,5.6,2.3,8.1h16c7.9-5.8,20.3-13.4,36.6-18.7c45.3-14.5,67.5-29.1,71.2-51.3C321.4,977.6,282,961.8,240.9,991.9z"/>
		<path class="st1" d="M305.3,978.5c-16.8-10.4-42.8-6.1-66.2,11h0c-14.2,10.3-29.6,24.1-38,56.5c-1.9-8.1-3.6-16.1-5.1-24l25-35.5
			c0.5-0.7,0.6-1.5,0.5-2.2c-0.1-0.8-0.6-1.5-1.2-1.9l-4.4-3.1c-1.2-0.8-2.8-0.7-3.9,0.3l-19.7,19.9c-1.8-12.2-2.6-21.6-3-36.7
			c8.6-4,21.7-8.7,38.1-10.3c47.8-4.6,70.6-14.7,78.7-35c4.9-12.3,2.7-24.1-6.1-32.6c-13.5-13-38.5-14.3-63.7-3.1
			c-15.4,6.8-31.5,15.9-45.2,42.1c2.2-18,6.2-38.8,11.9-61.1c5.9-2.9,16.7-6.8,29.2-4.3c35,7,53.4,4.2,63.5-9.4
			c6.4-8.7,7.1-18.7,2-26.9c-5.8-9.2-20.5-17.2-44.2-12.4c-12.2,2.5-28.4,8.6-42.4,23.6c5.6-18.5,10.1-31,10.1-31.2
			c0.6-1.6-0.2-3.3-1.8-3.8l-13.6-4.9c-0.7-0.3-1.6-0.2-2.3,0.1c-0.7,0.3-1.3,0.9-1.6,1.7c-0.8,2.2-7.1,19.8-14.1,44.6
			c-3.7-11.8-10.1-22.4-19-30.9c-10.3-9.9-26.3-18.2-40.6-11.7c-9.1,4.1-14.2,13.2-13.6,24.3c0.9,16.7,14.1,28,45.7,39.2
			c9,3.2,15,9.4,18.5,14.3c-1.6,6.9-2.7,12.1-4,19.1l-26.9-24.7c-1.1-1.1-2.9-1.1-4.1,0l-4,3.7c-1.2,1.1-1.3,2.9-0.3,4.1l31.8,38
			c-0.5,3.2-0.8,6.1-1.2,8.9c-7.3-15.8-17-23.7-25.9-30c-23.2-16.4-44-14.5-55.8-7.2c-10.9,6.7-16.2,18.7-14.2,32.1
			c3.1,21,21.5,34,63.5,45c14.3,3.8,25.1,10.2,31.8,15.2c1.2,15.8,3.4,32.3,6.7,49.3c-15.8-20.2-31.4-26.2-45.2-30.1
			c-30.2-8.6-50.9,0.8-60.2,12.5c-8.2,10.3-9.2,23.8-2.5,36.2c10.7,19.8,34.2,26.5,81.2,23.2c15.7-1.1,28.9,1.5,37.6,4.1
			c0.5,1.9,1.1,3.8,1.7,5.7h6.1c0-0.3,0-0.5-0.1-0.8c-0.8-2.6-1.6-5.4-2.4-8.1c-0.3-1-1-1.7-2-2c-7.7-2.4-19.4-5.1-33.4-5.1
			c-2.6,0-5.2,0.1-7.9,0.3c-44.2,3.1-66.1-2.7-75.5-20c-5.6-10.3-4.9-21.1,1.9-29.6c8.1-10.1,26.5-18.2,53.9-10.5
			c15.9,4.5,32.8,11.3,50.2,39.8c0.8,1.3,2.3,1.8,3.7,1.2c1.4-0.5,2.1-2,1.8-3.4c-4.9-22.3-8.2-43.9-9.6-64.3
			c-0.1-0.9-0.5-1.6-1.2-2.2c-7.1-5.5-19-12.8-35-17.1c-39.2-10.3-56.4-21.9-59.1-40.1c-1.6-11.1,2.5-20.6,11.4-26.1
			c10.2-6.2,28.4-7.7,49.2,7c10.6,7.5,21.6,16.8,28.4,39.5c0.4,1.4,1.8,2.3,3.2,2.1c1.4-0.2,2.6-1.3,2.7-2.8
			c0.6-9.1,1.2-14.7,2.4-23.1c0.1-0.8-0.1-1.7-0.7-2.4l-29.8-35.6l27.7,25.5c0.8,0.7,2,1,3,0.6c1-0.4,1.8-1.3,2-2.3
			c1.7-10.2,3-16,5.2-25.4c0.2-0.8,0-1.7-0.4-2.3c-3.9-5.9-11-13.7-22.2-17.7c-28.9-10.3-40.9-20.1-41.7-33.9
			c-0.4-8.5,3.3-15.4,10.1-18.5c7.6-3.5,20.4-2.5,33.9,10.5c10.8,10.4,17.7,24,19.9,39.4c0.2,1.4,1.4,2.5,2.8,2.6
			c1.4,0.1,2.7-0.8,3.1-2.2c6.7-25.2,13.6-45.6,16.2-52.9l7.9,2.9c-2.2,6.4-7.8,22.9-13.6,43.7c-0.4,1.4,0.3,2.9,1.7,3.5
			c1.4,0.6,2.9,0.1,3.8-1.1c14.5-22.4,34.3-30.5,48.3-33.4c20.7-4.2,33.3,2.6,37.9,9.7c3.9,6.1,3.2,13.4-1.7,20.1
			c-8.5,11.5-25.2,13.5-57.5,7.1c-15.2-3-28.1,2.1-34.4,5.5c-0.7,0.4-1.3,1.1-1.5,1.9c-7.9,30.9-12.8,58.9-14,81.1
			c-0.1,1.5,0.9,2.8,2.4,3.1c1.4,0.3,2.9-0.5,3.4-1.8c14.4-37,32.3-47.6,49.4-55.2c27.8-12.3,48.1-6.7,57.1,2
			c6.9,6.7,8.6,16.2,4.7,26c-7.2,17.9-28.5,26.9-73.7,31.3c-18.4,1.8-32.9,7.3-41.8,11.7c-1.1,0.5-1.7,1.6-1.7,2.8
			c0.5,19.1,1.4,29.2,4.1,45.3c0.2,1.1,1,2,2.1,2.4c1.1,0.3,2.3,0,3-0.8l21.5-21.8l-23.5,33.5c-0.5,0.7-0.6,1.5-0.5,2.3
			c2.3,12.6,5.2,25.5,8.5,38.3c0.4,1.4,1.6,2.3,3,2.2c1.4-0.1,2.6-1.1,2.8-2.5c6.8-39.6,22.7-54.1,38.3-65.5c0,0,0,0,0,0
			c26-19,48.3-17.7,59.5-10.8c8.7,5.4,12.6,14.9,10.7,26c-3.4,20.1-23.4,34.3-69.2,48.9c-16.9,5.4-29.8,13.4-37.6,19.2
			c-0.6,0.4-1,1-1.1,1.7l-0.1,0.6h8.4c7.5-5.2,18.5-11.4,32.3-15.8c48.2-15.4,69.4-30.9,73.3-53.6
			C321.1,996.9,316.2,985.2,305.3,978.5z"/>
		<g id="_x33__3_">
			<g>
				<circle class="st1" cx="217.4" cy="983.4" r="18"/>
			</g>
		</g>
		<g id="_x32__4_">
			<g>
				<circle class="st1" cx="144.4" cy="872.5" r="18"/>
			</g>
		</g>
		<g id="_x31__4_">
			<g>
				<circle class="st1" cx="217.4" cy="788.6" r="18"/>
			</g>
		</g>
		<g id="Stripes_2_1_">
			<g>
				<g>
					<path class="st1" d="M627.4,193.2c-0.9,0-1.9-0.2-2.7-0.5c-1.8-0.7-3.2-2.1-4-3.9c-0.8-1.8-0.8-3.8-0.1-5.6l14.8-36.8
						c0.7-1.8,2.1-3.2,3.9-4c1.8-0.8,3.8-0.8,5.6-0.1c3.8,1.5,5.6,5.8,4.1,9.6l-14.8,36.8C633.1,191.4,630.4,193.2,627.4,193.2z
						 M642.2,147.7c-0.2,0-0.4,0.1-0.5,0.1c-0.2,0.1-0.5,0.3-0.7,0.7l-14.8,36.8c-0.2,0.5-0.1,0.8,0,1c0.1,0.2,0.3,0.5,0.7,0.7
						c0.7,0.3,1.5-0.1,1.8-0.7l14.8-36.8c0.3-0.7-0.1-1.5-0.7-1.7C642.5,147.8,642.4,147.7,642.2,147.7z"/>
				</g>
			</g>
			<g>
				<g>
					<path class="st1" d="M654.7,213.1c-2.1,0-4-0.9-5.4-2.4c-1.3-1.4-2-3.3-1.9-5.3c0.1-2,0.9-3.8,2.4-5.1l32.9-30
						c1.4-1.3,3.3-2,5.3-1.9c2,0.1,3.8,0.9,5.1,2.4c1.3,1.4,2,3.3,1.9,5.3c-0.1,2-0.9,3.8-2.4,5.1l-32.9,30
						C658.3,212.4,656.5,213.1,654.7,213.1z M687.6,174.3c-0.2,0-0.6,0.1-0.9,0.4l-32.9,30c-0.4,0.3-0.4,0.7-0.4,0.9
						c0,0.2,0,0.6,0.4,1c0.3,0.4,0.8,0.4,1,0.4c0.2,0,0.6-0.1,0.9-0.4l32.9-30c0.4-0.3,0.4-0.7,0.4-0.9c0-0.2,0-0.6-0.4-1
						C688.3,174.4,687.9,174.3,687.6,174.3C687.6,174.3,687.6,174.3,687.6,174.3z"/>
				</g>
			</g>
			<g>
				<g>
					<path class="st1" d="M670.3,237.9c-3.7,0-6.9-2.8-7.3-6.5c-0.2-1.9,0.3-3.9,1.5-5.4c1.2-1.5,3-2.5,4.9-2.7l38.6-4.5
						c1.9-0.2,3.9,0.3,5.4,1.5c1.5,1.2,2.5,3,2.7,4.9c0.2,1.9-0.3,3.9-1.5,5.4c-1.2,1.5-3,2.5-4.9,2.7l-38.6,4.5
						C670.9,237.9,670.6,237.9,670.3,237.9z M708.9,224.7c-0.1,0-0.1,0-0.2,0l-38.6,4.5c-0.5,0.1-0.8,0.3-0.9,0.5
						c-0.1,0.2-0.3,0.5-0.3,1c0.1,0.7,0.7,1.3,1.5,1.2l38.6-4.5c0.5-0.1,0.8-0.3,0.9-0.5c0.1-0.2,0.3-0.5,0.3-1
						c-0.1-0.5-0.3-0.8-0.5-0.9C709.6,224.9,709.3,224.7,708.9,224.7z"/>
				</g>
			</g>
		</g>
		<g id="Stripes_1_1_">
			<g>
				<g>
					<path class="st10" d="M291.9,496.2c-0.1,0-0.3,0-0.4,0l-41.8-3.8c-2.5-0.2-4.4-2.5-4.2-5c0.2-2.5,2.5-4.4,5-4.2l41.8,3.8
						c2.5,0.2,4.4,2.5,4.2,5C296.2,494.4,294.2,496.2,291.9,496.2z"/>
					<path class="st1" d="M291.9,499.2c-0.2,0-0.5,0-0.7,0l-41.8-3.8c-4.2-0.4-7.3-4.1-6.9-8.3c0.2-2,1.1-3.9,2.7-5.1
						c1.6-1.3,3.5-1.9,5.6-1.7l41.8,3.8c4.2,0.4,7.3,4.1,6.9,8.3C299.1,496.2,295.8,499.2,291.9,499.2z M250,486.2
						c-0.4,0-0.7,0.1-1,0.4c-0.3,0.3-0.5,0.7-0.6,1.1c-0.1,0.9,0.6,1.7,1.4,1.7l41.8,3.8c0,0,0.1,0,0.2,0c0.8,0,1.5-0.6,1.6-1.5
						c0.1-0.9-0.6-1.7-1.4-1.7l-41.8-3.8C250.1,486.2,250.1,486.2,250,486.2z"/>
				</g>
			</g>
			<g>
				<g>
					<path class="st10" d="M303.7,462.5c-0.8,0-1.6-0.2-2.4-0.7l-40.5-24.2c-2.2-1.3-2.9-4.1-1.6-6.3c1.3-2.2,4.1-2.9,6.3-1.6
						L306,454c2.2,1.3,2.9,4.1,1.6,6.3C306.7,461.7,305.2,462.5,303.7,462.5z"/>
					<path class="st1" d="M303.7,465.5c-1.4,0-2.7-0.4-3.9-1.1l-40.5-24.2c-1.7-1-3-2.7-3.5-4.7c-0.5-2-0.2-4,0.8-5.8
						c1-1.7,2.7-3,4.7-3.5c2-0.5,4-0.2,5.8,0.8l40.5,24.2c1.7,1,3,2.7,3.5,4.7c0.5,2,0.2,4-0.8,5.8
						C308.8,464.1,306.3,465.5,303.7,465.5z M263.2,432.1c-0.1,0-0.3,0-0.4,0c-0.4,0.1-0.8,0.4-1,0.7c-0.2,0.4-0.3,0.8-0.2,1.2
						c0.1,0.4,0.4,0.8,0.7,1l40.5,24.2c0.8,0.5,1.8,0.2,2.2-0.6c0.2-0.4,0.3-0.8,0.2-1.2c-0.1-0.4-0.4-0.8-0.7-1L264,432.3
						C263.8,432.2,263.5,432.1,263.2,432.1z"/>
				</g>
			</g>
			<g>
				<g>
					<path class="st1" d="M324.1,442.1c-3,0-5.8-1.8-7-4.6l-16.3-37.7c-0.8-1.9-0.8-3.9-0.1-5.8c0.8-1.9,2.2-3.4,4.1-4.2
						c3.8-1.7,8.3,0.1,10,4l16.3,37.7c0.8,1.9,0.8,3.9,0.1,5.8s-2.2,3.4-4.1,4.2C326.1,441.9,325.1,442.1,324.1,442.1z M307.8,395.1
						c-0.2,0-0.4,0-0.6,0.1c-0.4,0.2-0.7,0.5-0.9,0.9c-0.2,0.4-0.2,0.8,0,1.2l16.3,37.7c0.3,0.8,1.3,1.2,2.1,0.8
						c0.4-0.2,0.7-0.5,0.9-0.9c0.2-0.4,0.2-0.8,0-1.2l-16.3-37.7C309,395.5,308.4,395.1,307.8,395.1z"/>
				</g>
			</g>
		</g>
	</g>
</g>
<g id="solid">
	<g id="Background_1_">
	</g>
	<g id="Foreground">
	</g>
</g>
</svg>
